<svg width="512" height="512" xmlns="http://www.w3.org/2000/svg" preserveAspectRatio="xMinYMin meet">

 <g>
  <title>background</title>
  <rect fill="none" id="canvas_background" height="514" width="514" y="-1" x="-1"/>
 </g>
 <g>
  <title>Layer 1</title>
  <g stroke="null" id="svg_5">
   <path stroke="null" id="svg_1" fill="#C00" d="m19.0588,129.30128l241.11013,-126.29517l241.10815,126.29517l0,252.38545l-241.10815,126.29517l-241.11013,-126.29517l0,-252.38545z"/>
   <path stroke="null" id="svg_2" fill="#FFF" d="m266.92832,255.39156l224.20867,-116.15721l9.01319,234.14067l-233.22186,126.69962l0,-244.68309z"/>
   <path stroke="null" id="svg_3" fill="#C00" d="m494.51768,132.13955l-0.67733,248.12893l-233.89721,122.03687l-1.1269,-243.87241l235.70143,-126.29339zm-196.71757,146.56398l0.67336,162.98784l77.74194,-40.74785l-0.22578,-122.84577l39.20963,-20.88171l0,123.25378l39.20765,-20.67682l0.22578,-165.01365l-156.83457,83.92596l0.00198,-0.00178z"/>
   <path stroke="null" id="svg_4" fill="#910505" d="m275.49194,4.83058c-10.81741,-5.47343 -28.16843,-5.47343 -38.98386,0l-213.61704,110.48244c-10.81741,5.47343 -19.37904,19.25857 -19.37904,30.20544l0,220.96488c0,11.1482 8.78741,24.73022 19.37904,30.20544l213.61704,110.48066c10.81543,5.47343 28.16645,5.47343 38.98386,0l213.61506,-110.48066c10.81741,-5.47343 19.38102,-19.26035 19.38102,-30.20544l0,-220.96488c0,-11.14998 -8.78939,-24.732 -19.37904,-30.20544l-213.61704,-110.48244zm189.50662,115.54964c10.81543,5.47343 10.81543,14.59582 0,20.06925l-187.02904,96.6973c-10.81543,5.47343 -28.16645,5.47343 -38.98188,0l-189.73438,-98.11555c-10.81741,-5.47343 -10.81741,-14.59582 0,-20.06925l187.02706,-96.6973c10.81741,-5.47343 28.16645,-5.47343 38.98386,0l189.73042,98.11555l0.00396,0zm-444.81287,41.1523c0,-11.1482 8.78939,-15.60783 19.37904,-10.13618l191.31085,98.92801c10.81345,5.47343 19.37706,19.25857 19.37706,30.20544l0,196.23288c0,11.14998 -8.78741,15.60783 -19.37706,10.13618l-191.31085,-98.92801c-10.81543,-5.47343 -19.37904,-19.25857 -19.37904,-30.20544l0,-196.23288zm266.57322,322.32494c-10.81741,5.47343 -19.37904,1.0138 -19.37904,-10.13618l0,-193.19149c0,-11.14998 8.78741,-24.732 19.37706,-30.20544l185.67637,-95.88662c10.81741,-5.47343 19.37904,-1.0138 19.37904,10.13618l0,193.19149c0,11.14998 -8.78741,24.732 -19.37904,30.20544l-185.67637,95.88662l0.00198,0z"/>
  </g>
 </g>
</svg>