<svg xmlns="http://www.w3.org/2000/svg" style="display:none;">
<symbol id="exclamation-circle" fill="none" viewBox="0 0 24 24" stroke-width="1.5" stroke="currentColor">
  <path stroke-linecap="round" stroke-linejoin="round" d="M12 9v3.75m9-.75a9 9 0 1 1-18 0 9 9 0 0 1 18 0Zm-9 3.75h.008v.008H12v-.008Z" />
</symbol>
<symbol id="cog-6-tooth" fill="none" viewBox="0 0 24 24" stroke-width="1.5" stroke="currentColor">
  <path stroke-linecap="round" stroke-linejoin="round" d="M9.594 3.94c.09-.542.56-.94 1.11-.94h2.593c.55 0 1.02.398 1.11.94l.213 1.281c.063.374.313.686.645.87.074.04.147.083.22.127.325.196.72.257 1.075.124l1.217-.456a1.125 1.125 0 0 1 1.37.49l1.296 2.247a1.125 1.125 0 0 1-.26 1.431l-1.003.827c-.293.241-.438.613-.43.992a7.723 7.723 0 0 1 0 .255c-.008.378.137.75.43.991l1.004.827c.424.35.534.955.26 1.43l-1.298 2.247a1.125 1.125 0 0 1-1.369.491l-1.217-.456c-.355-.133-.75-.072-1.076.124a6.47 6.47 0 0 1-.22.128c-.331.183-.581.495-.644.869l-.213 1.281c-.09.543-.56.94-1.11.94h-2.594c-.55 0-1.019-.398-1.11-.94l-.213-1.281c-.062-.374-.312-.686-.644-.87a6.52 6.52 0 0 1-.22-.127c-.325-.196-.72-.257-1.076-.124l-1.217.456a1.125 1.125 0 0 1-1.369-.49l-1.297-2.247a1.125 1.125 0 0 1 .26-1.431l1.004-.827c.292-.24.437-.613.43-.991a6.932 6.932 0 0 1 0-.255c.007-.38-.138-.751-.43-.992l-1.004-.827a1.125 1.125 0 0 1-.26-1.43l1.297-2.247a1.125 1.125 0 0 1 1.37-.491l1.216.456c.356.133.751.072 1.076-.124.072-.044.146-.086.22-.128.332-.183.582-.495.644-.869l.214-1.28Z" />
  <path stroke-linecap="round" stroke-linejoin="round" d="M15 12a3 3 0 1 1-6 0 3 3 0 0 1 6 0Z" />
</symbol>
<symbol id="folder" fill="none" viewBox="0 0 24 24" stroke-width="1.5" stroke="currentColor">
  <path stroke-linecap="round" stroke-linejoin="round" d="M2.25 12.75V12A2.25 2.25 0 0 1 4.5 9.75h15A2.25 2.25 0 0 1 21.75 12v.75m-8.69-6.44-2.12-2.12a1.5 1.5 0 0 0-1.061-.44H4.5A2.25 2.25 0 0 0 2.25 6v12a2.25 2.25 0 0 0 2.25 2.25h15A2.25 2.25 0 0 0 21.75 18V9a2.25 2.25 0 0 0-2.25-2.25h-5.379a1.5 1.5 0 0 1-1.06-.44Z" />
</symbol>
<symbol id="academic-cap" fill="none" viewBox="0 0 24 24" stroke-width="1.5" stroke="currentColor">
  <path stroke-linecap="round" stroke-linejoin="round" d="M4.26 10.147a60.438 60.438 0 0 0-.491 6.347A48.62 48.62 0 0 1 12 20.904a48.62 48.62 0 0 1 8.232-4.41 60.46 60.46 0 0 0-.491-6.347m-15.482 0a50.636 50.636 0 0 0-2.658-.813A59.906 59.906 0 0 1 12 3.493a59.903 59.903 0 0 1 10.399 5.84c-.896.248-1.783.52-2.658.814m-15.482 0A50.717 50.717 0 0 1 12 13.489a50.702 50.702 0 0 1 7.74-3.342M6.75 15a.75.75 0 1 0 0-1.5.75.75 0 0 0 0 1.5Zm0 0v-3.675A55.378 55.378 0 0 1 12 8.443m-7.007 11.55A5.981 5.981 0 0 0 6.75 15.75v-1.5" />
</symbol>
<symbol id='external' fill="none" viewBox="0 0 24 24" stroke-width="1.5" stroke="currentColor">
  <path stroke-linecap="round" stroke-linejoin="round" d="M13.5 6H5.25A2.25 2.25 0 0 0 3 8.25v10.5A2.25 2.25 0 0 0 5.25 21h10.5A2.25 2.25 0 0 0 18 18.75V10.5m-10.5 6L21 3m0 0h-5.25M21 3v5.25" />
</symbol>

</svg>